<svg xmlns="http://www.w3.org/2000/svg" viewBox="0 0 334.83 32.27"><defs><style>.cls-1{fill:#47b4e0;}</style></defs><g id="Livello_2" data-name="Livello 2"><g id="Livello_1-2" data-name="Livello 1"><path class="cls-1" d="M16.28,24.66H8.58L1.69,5.85H0V0H12.67V5.85H10.85l2.88,10.53L17.38,5.85H15.57V0H26.23V5.85H24.42l3.71,10.53L31,5.85H29.29V0h9.86V5.85H37.46l-7,18.81H22.9l-3.3-9.42Z"/><path class="cls-1" d="M53.14,19.05l7.29.9A6.52,6.52,0,0,1,59.06,22a8.35,8.35,0,0,1-2.14,1.57,12.63,12.63,0,0,1-6.1,1.37c-4,0-7-.82-9-2.48a7.94,7.94,0,0,1-3-6.45,8.28,8.28,0,0,1,3-6.5,11.6,11.6,0,0,1,8-2.6,12.15,12.15,0,0,1,7.88,2.46q3,2.45,3.18,7.43H47.41Q47.46,21,50.5,21A2.73,2.73,0,0,0,53.14,19.05Zm-5.63-4.46h5q0-.52,0-.6a3.66,3.66,0,0,0-.7-2.3,2.25,2.25,0,0,0-1.86-.9,2,2,0,0,0-1.83,1,4.54,4.54,0,0,0-.63,2.46C47.5,14.37,47.5,14.48,47.51,14.59Z"/><path class="cls-1" d="M70.77,12.16l-6.93-.7a6.67,6.67,0,0,1,3.7-3.53,20.62,20.62,0,0,1,7.41-1c1.21,0,2.29,0,3.25.11a20.7,20.7,0,0,1,2.55.35,7.79,7.79,0,0,1,3.47,1.35,5.19,5.19,0,0,1,1.56,2,9.53,9.53,0,0,1,.46,3.45v4.92h2.18v5.36h-11V23.29a11.13,11.13,0,0,1-6.12,1.48,8.13,8.13,0,0,1-5.43-1.58A4.82,4.82,0,0,1,64,19.44a4.59,4.59,0,0,1,2.27-3.92A10.25,10.25,0,0,1,72.14,14a13.35,13.35,0,0,1,5.26.86v-.51a7.39,7.39,0,0,0-.23-2.21A2.25,2.25,0,0,0,76.08,11a4.32,4.32,0,0,0-2-.46A3.74,3.74,0,0,0,70.77,12.16Zm6.63,7.93V17a5.24,5.24,0,0,0-2.5-.63,2.64,2.64,0,0,0-1.85.63,2.37,2.37,0,0,0,0,3.34,2.34,2.34,0,0,0,1.65.67A3.9,3.9,0,0,0,77.4,20.09Z"/><path class="cls-1" d="M104.57,18.23v5.24a8.81,8.81,0,0,1-2.49,1,13.09,13.09,0,0,1-3.31.45,8.07,8.07,0,0,1-3.41-.65,5.08,5.08,0,0,1-2.2-1.79,6.22,6.22,0,0,1-.59-1.19,5.16,5.16,0,0,1-.28-1.2c-.09-.77-.13-2.27-.13-4.48V12.76H90V7.4h2.18V4.78L101,.58V7.4h3.57v5.36H101v3.31a5.13,5.13,0,0,0,.3,2.16,1.23,1.23,0,0,0,1.2.54A5.29,5.29,0,0,0,104.57,18.23Z"/><path class="cls-1" d="M120.18,24.45H106.72V19.09H109V5.36h-2.23V0h11.07V9.46a12.48,12.48,0,0,1,6.94-2.38,6.48,6.48,0,0,1,4.77,1.74c1.17,1.18,1.76,3.24,1.76,6.21v4.06h2v5.36H122.41v-7a12.5,12.5,0,0,0-.37-4,1.59,1.59,0,0,0-1.61-.81,4.76,4.76,0,0,0-2.64.9v5.52h2.39Z"/><path class="cls-1" d="M150.28,19.05l7.29.9A6.7,6.7,0,0,1,156.2,22a8.41,8.41,0,0,1-2.15,1.57A12.59,12.59,0,0,1,148,24.94c-4,0-7-.82-9-2.48A8,8,0,0,1,136,16a8.26,8.26,0,0,1,3-6.5,11.58,11.58,0,0,1,8-2.6,12.1,12.1,0,0,1,7.87,2.46q3,2.45,3.18,7.43H144.54q.06,4.15,3.1,4.15A2.73,2.73,0,0,0,150.28,19.05Zm-5.63-4.46h5q0-.52,0-.6a3.66,3.66,0,0,0-.7-2.3,2.25,2.25,0,0,0-1.87-.9,2,2,0,0,0-1.82,1,4.46,4.46,0,0,0-.64,2.46C144.63,14.37,144.64,14.48,144.65,14.59Z"/><path class="cls-1" d="M174.46,24.45H160.72V19.09H163V12.76h-2.32V7.4H171.3v4.27a7.24,7.24,0,0,1,1.84-2.76,5.92,5.92,0,0,1,2.43-1.49A13.61,13.61,0,0,1,179,7.08v7.51l-.74,0a11,11,0,0,0-4,.55,3.45,3.45,0,0,0-1.86,1.47,5.42,5.42,0,0,0-.53,2.5h2.58Z"/><path class="cls-1" d="M202.94,24.45H189.65V18.6h2V5.85h-2V0h13.29c1.19,0,2.3,0,3.32.06s1.89.1,2.62.18a19.81,19.81,0,0,1,2,.3,7.44,7.44,0,0,1,4.17,2.38,6.48,6.48,0,0,1,1.62,4.39,6.26,6.26,0,0,1-1,3.45A5.85,5.85,0,0,1,213.1,13l3.37,5.59h1.76v5.85h-8.8l-5.33-10h-3V18.6h1.85ZM201.09,5.36V10h1.06A21.14,21.14,0,0,0,205,9.9a2.32,2.32,0,0,0,1.34-.71,2,2,0,0,0,.54-1.49,2.08,2.08,0,0,0-.54-1.51,2.36,2.36,0,0,0-1.39-.71A23.89,23.89,0,0,0,202,5.36Z"/><path class="cls-1" d="M234.67,19.05,242,20A6.7,6.7,0,0,1,240.59,22a8.35,8.35,0,0,1-2.14,1.57,12.66,12.66,0,0,1-6.1,1.37c-4,0-7-.82-9-2.48a7.94,7.94,0,0,1-3-6.45,8.28,8.28,0,0,1,3-6.5,11.58,11.58,0,0,1,8-2.6,12.15,12.15,0,0,1,7.88,2.46q3,2.45,3.18,7.43H228.94Q229,21,232,21A2.73,2.73,0,0,0,234.67,19.05ZM229,14.59h5q0-.52,0-.6a3.66,3.66,0,0,0-.7-2.3,2.25,2.25,0,0,0-1.86-.9,2,2,0,0,0-1.83,1,4.54,4.54,0,0,0-.63,2.46C229,14.37,229,14.48,229,14.59Z"/><path class="cls-1" d="M244.55,12.76V7.4h10.9V8.54a12.42,12.42,0,0,1,5.78-1.46,9.4,9.4,0,0,1,6.52,2.46A8.42,8.42,0,0,1,270.46,16a8.06,8.06,0,0,1-2.66,6.38,10.1,10.1,0,0,1-6.94,2.36,10,10,0,0,1-5.41-1.41v3.55h2.25v5.36H244.51V26.91h2.09V12.76ZM255.39,16a4,4,0,0,0,.85,2.77,2.62,2.62,0,0,0,2.09.95c2,0,3-1.27,3-3.83s-1-3.74-2.88-3.74a2.87,2.87,0,0,0-2.18.91A4.2,4.2,0,0,0,255.39,16Z"/><path class="cls-1" d="M273.64,15.84a7.9,7.9,0,0,1,3.16-6.35q3.17-2.58,8.55-2.58a14.49,14.49,0,0,1,8.8,2.49,7.74,7.74,0,0,1,3.39,6.51,7.92,7.92,0,0,1-3.23,6.45,13.29,13.29,0,0,1-8.54,2.58q-5.73,0-8.93-2.58A8,8,0,0,1,273.64,15.84Zm8.95,0q0,4.08,2.91,4.08,3.11,0,3.1-4.11a4.83,4.83,0,0,0-.76-2.92,2.56,2.56,0,0,0-2.18-1,2.75,2.75,0,0,0-2.23,1A4.57,4.57,0,0,0,282.59,15.87Z"/><path class="cls-1" d="M314,24.45H300.25V19.09h2.32V12.76h-2.32V7.4h10.58v4.27a7.27,7.27,0,0,1,1.85-2.76,5.92,5.92,0,0,1,2.43-1.49,13.5,13.5,0,0,1,3.46-.34v7.51l-.74,0a11,11,0,0,0-4,.55,3.49,3.49,0,0,0-1.86,1.47,5.55,5.55,0,0,0-.53,2.5H314Z"/><path class="cls-1" d="M334.83,18.23v5.24a9,9,0,0,1-2.5,1,13.07,13.07,0,0,1-3.3.45,8,8,0,0,1-3.41-.65,5,5,0,0,1-2.2-1.79,6.32,6.32,0,0,1-.6-1.19,5.72,5.72,0,0,1-.28-1.2c-.08-.77-.12-2.27-.12-4.48V12.76h-2.18V7.4h2.18V4.78l8.84-4.2V7.4h3.57v5.36h-3.57v3.31a5.13,5.13,0,0,0,.3,2.16,1.21,1.21,0,0,0,1.19.54A5.29,5.29,0,0,0,334.83,18.23Z"/></g></g></svg>