<svg id="Layer_1" enable-background="new 0 0 512 512" height="512" viewBox="0 0 512 512" width="512" xmlns="http://www.w3.org/2000/svg"><g><path d="m428.53 212c12.337-60.773-51.311-107.63-105.285-79.934-11.863-39.149-48.223-67.649-91.245-67.649-55.657 0-99.931 47.646-94.95 103.856-45.352 3.543-81.05 41.465-81.05 87.727 0 48.466 39.265 88 88 88h286c36.349 0 66-29.449 66-66 0-34.841-27.42-66-67.47-66z" fill="#e2e0e0"/><path d="m70.129 342.243c-9.898-48.692 41.136-86.247 84.467-64.043 9.517-31.366 38.688-54.2 73.203-54.2 44.769 0 80.162 38.289 76.176 83.208 36.385 2.84 65.025 33.222 65.025 70.287 0 38.969-31.639 70.505-70.6 70.505-2.537 0-204.549 0-229.45 0-29.23 0-52.95-23.662-52.95-52.879 0-27.805 21.881-52.878 54.129-52.878z" fill="#e2e0e0"/><path d="m369 377.49c0 39.047-31.713 70.51-70.6 70.51h-48c38.99 0 70.6-31.57 70.6-70.5 0-37.31-28.878-67.469-65.02-70.29 3.193-35.928-18.98-68.423-52.18-79.37 51.866-17.105 105.072 24.318 100.18 79.37 36.38 2.84 65.02 33.22 65.02 70.28z" fill="#cecccc"/><path d="m496 278c0 36.45-29.55 66-66 66h-48c36.45 0 66-29.55 66-66 0-34.634-27.199-66-67.47-66 7.414-36.607-13.63-72.113-47.83-83.97 52.979-18.413 107.214 27.759 95.83 83.97 39.889 0 67.47 31.002 67.47 66z" fill="#cecccc"/><path d="m446 197.132c0-59.752-57.127-102.302-113.732-86.179-18.179-37.449-56.177-62.953-100.268-62.953-59.664 0-108.517 47.181-111.213 106.191-69.138 15.75-102.983 95.7-65.109 156.31-1.567 5.633-2.499 11.526-2.691 17.605-30.348 7.212-52.987 34.522-52.987 67.016 0 37.979 30.931 68.878 68.95 68.878h229.45c54.532 0 96.146-50.227 84.712-104.42h46.888c45.215 0 82-36.785 82-82 0-40.156-28.716-73.109-66-80.448zm-147.6 234.868h-229.45c-20.374 0-36.95-16.544-36.95-36.879 0-19.254 15.067-36.878 38.129-36.878 10.097 0 17.696-9.263 15.68-19.186-7.173-35.313 29.883-62.817 61.491-46.618 8.883 4.551 19.715-.061 22.607-9.594 7.655-25.226 31.461-42.845 57.893-42.845 35.221 0 63.402 30.186 60.239 65.791-.789 8.869 5.82 16.677 14.692 17.37 28.188 2.198 50.269 26.065 50.269 54.334 0 30.054-24.493 54.505-54.6 54.505zm131.6-104.42h-60.877c-11.981-16.902-29.368-28.801-49.078-33.862-3.432-47.839-43.494-85.718-92.245-85.718-36.009 0-66.728 20.367-82.121 49.916-25.144-6.186-51.681.962-70.362 19.334-14.041-44.574 17.717-89.906 62.978-93.439 8.878-.694 15.479-8.506 14.692-17.37-4.13-46.28 32.351-86.441 79.013-86.441 34.662 0 65.889 23.148 75.938 56.292 2.894 9.545 13.744 14.153 22.626 9.588 42.285-21.737 91.869 15.177 82.284 62.524-2.004 9.892 5.562 19.176 15.682 19.176 14.998 0 27.159 4.985 36.821 14.639 31.216 31.24 9.335 85.361-35.351 85.361z"/></g></svg>