<svg id="Layer_1" enable-background="new 0 0 513 513" height="512" viewBox="0 0 513 513" width="512" xmlns="http://www.w3.org/2000/svg"><g><path d="m422.897 177c13.459-66.298-55.976-117.414-114.857-87.201-12.941-42.708-52.607-73.799-99.54-73.799-60.717 0-109.016 51.978-103.582 113.297-49.475 3.866-88.418 45.235-88.418 95.703 0 52.872 42.835 96 96 96h312c39.654 0 72-32.126 72-72 0-38.009-29.912-72-73.603-72z" fill="#e2e0e0"/><path d="m305.12 81.46c-15.679-1.662-31.188 1.216-45.08 8.34-10.66-35.2-39.48-62.5-75.55-71.01 50.352-11.951 101.601 14.992 120.63 62.67z" fill="#cecccc"/><path d="m496.5 249c0 39.76-32.24 72-72 72h-48c39.76 0 72-32.24 72-72 0-37.769-29.658-72-73.6-72 8.233-40.537-15.659-80.148-54.37-92.32 57.455-18.14 114.605 32.076 102.37 92.32 43.51 0 73.6 33.815 73.6 72z" fill="#cecccc"/><path d="m496.5 353c-43.113 0-44.698 16-80 16-35.166 0-36.902-16-80.01-16-43.114 0-44.697 16-80 16-34.771 0-37.212-16-79.99-16-18.92 0-30.469 3.314-39.27 6.556-8.292 3.054-12.539 12.252-9.484 20.544s12.251 12.538 20.544 9.484c7.47-2.751 15.126-4.584 28.21-4.584 35.168 0 36.832 16 79.99 16 43.114 0 44.697-16 80-16 35.174 0 36.844 16 80.01 16 43.114 0 44.697-16 80-16 8.836 0 16-7.164 16-16s-7.164-16-16-16z"/><path d="m16.5 385c30.5 0 33.564 10.824 61.781 14.813 8.77 1.235 16.847-4.871 18.082-13.604 1.236-8.75-4.854-16.845-13.604-18.082-21.738-3.071-29.269-15.127-66.259-15.127-8.836 0-16 7.164-16 16s7.164 16 16 16z"/><path d="m496.5 409c-6.932 0-13.181.431-19.105 1.316-8.739 1.306-14.765 9.45-13.459 18.189 1.308 8.751 9.459 14.762 18.189 13.459 4.341-.649 9.043-.964 14.375-.964 8.836 0 16-7.164 16-16s-7.164-16-16-16z"/><path d="m416.5 457c11.078 0 17.248-8.201 17.003-16.483-.262-8.833-7.618-15.755-16.467-15.52-30.924.948-36.291-13.569-71.559-15.727-8.823-.542-16.408 6.173-16.947 14.993s6.173 16.408 14.993 16.947c27.859 1.704 32.866 15.79 72.977 15.79z"/><path d="m16.5 441c35.166 0 36.887 16 80 16 43.114 0 44.697-16 80-16 35.168 0 36.832 16 79.99 16 11.765 0 21.604-1.221 30.965-3.843 8.509-2.383 13.476-11.213 11.092-19.722-2.383-8.51-11.214-13.474-19.722-11.092-6.473 1.813-13.57 2.657-22.335 2.657-34.771 0-37.212-16-79.99-16-43.114 0-44.697 16-80 16-35.166 0-36.887-16-80-16-8.836 0-16 7.164-16 16s7.164 16 16 16z"/><path d="m496.5 465c-43.114 0-44.697 16-80 16-35.166 0-36.902-16-80.01-16-40.48 0-45.018 14.271-73.654 15.834-8.514.363-15.301 7.381-15.301 15.985 0 9.162 7.695 16.468 16.854 15.978 35.746-1.9 39.184-15.797 72.101-15.797 35.174 0 36.844 16 80.01 16 43.114 0 44.697-16 80-16 8.836 0 16-7.164 16-16s-7.164-16-16-16z"/><path d="m204.826 468.159c-8.49-2.126-17.755-3.159-28.326-3.159-43.114 0-44.697 16-80 16-35.165 0-36.887-16-80-16-8.836 0-16 7.164-16 16s7.164 16 16 16c35.166 0 36.887 16 80 16s44.698-16 80-16c8.026 0 14.557.699 20.554 2.201 8.569 2.147 17.261-3.062 19.407-11.635 2.146-8.571-3.063-17.26-11.635-19.407z"/><path d="m440.489 162.456c.91-64.644-61.191-111.943-123.37-93.457-19.101-40.448-60.072-68.999-108.619-68.999-64.682 0-117.576 51.444-119.919 115.564-50.2 10.917-88.081 55.622-88.081 109.436 0 61.757 50.243 112 112 112h312c48.523 0 88-39.477 88-88 0-43.065-31.094-79.004-72.011-86.544zm-15.989 142.544h-312c-44.112 0-80-35.888-80-80 0-41.493 32.357-76.524 73.664-79.751 8.857-.691 15.478-8.484 14.691-17.363-4.587-51.684 36.196-95.886 87.645-95.886 38.452 0 73.088 25.676 84.228 62.439 2.897 9.559 13.749 14.145 22.617 9.595 46.938-24.086 102.67 16.596 91.872 69.782-2.007 9.876 5.534 19.184 15.68 19.184 34.7 0 57.604 26.771 57.604 56-.001 30.878-25.122 56-56.001 56z"/></g></svg>