<svg id="Livello_1" data-name="Livello 1" xmlns="http://www.w3.org/2000/svg" viewBox="0 0 36.44 21.91"><defs><style>.cls-1{fill:#b5bcbf;}.cls-2{fill:#8b9b9e;}</style></defs><path class="cls-1" d="M39.53,23h0V23a4.77,4.77,0,0,0-5-4.53,6,6,0,0,0-1,.09,6.63,6.63,0,0,0-6.1-3.72A6.83,6.83,0,0,0,22.3,17a6.14,6.14,0,0,0-2.59-.57A5.54,5.54,0,0,0,14,21.17a5.91,5.91,0,0,0-5.89,5.57,6,6,0,0,0,6.14,5.73,6.79,6.79,0,0,0,.78,0,8.33,8.33,0,0,0,7.47,4.27A8.72,8.72,0,0,0,27.76,35a6.84,6.84,0,0,0,3.89,1.18A6.49,6.49,0,0,0,38,31.84a5.28,5.28,0,0,0,1.57.23,4.78,4.78,0,0,0,5-4.54A4.75,4.75,0,0,0,39.53,23Z" transform="translate(-8.12 -14.8)"/><path class="cls-2" d="M42.47,23.88c1.13,1,.33,3.43-.45,4.2-1.53,1.53-4.35,1.17-5.44,1a.71.71,0,0,0-.46,0c-.09,0-.13.13-.23.32A5.13,5.13,0,0,1,32.63,32a6.6,6.6,0,0,1-4.91-.84c-.34-.2-.36-.2-.51-.2a1,1,0,0,0-.5.24,8.67,8.67,0,0,1-5.6,1.48,6.48,6.48,0,0,1-5-2.56.57.57,0,0,0-.35-.3.69.69,0,0,0-.45.24c-1.21,1.07-5,1.39-6.27-.43a6.39,6.39,0,0,0,5.29,2.82,6.85,6.85,0,0,0,.79,0,8.32,8.32,0,0,0,7.47,4.28A8.76,8.76,0,0,0,27.81,35a7,7,0,0,0,3.9,1.18A6.49,6.49,0,0,0,38,31.82a5.25,5.25,0,0,0,1.57.24,4.79,4.79,0,0,0,5-4.55A4.45,4.45,0,0,0,42.47,23.88Z" transform="translate(-8.12 -14.8)"/></svg>