<svg id="Livello_1" data-name="Livello 1" xmlns="http://www.w3.org/2000/svg" viewBox="0 0 81.06 81.06"><defs><style>.cls-1{fill:#f9b651;}</style></defs><path class="cls-1" d="M50,28.6A21.48,21.48,0,1,0,71.47,50.07,21.48,21.48,0,0,0,50,28.6" transform="translate(-9.47 -9.54)"/><path class="cls-1" d="M45.38,24.68h9.24a1.31,1.31,0,0,0,1.22-1.76L51.23,10.4A1.32,1.32,0,0,0,50,9.54a1.28,1.28,0,0,0-1.22.86L44.16,22.93a1.32,1.32,0,0,0,.15,1.19,1.28,1.28,0,0,0,1.07.56" transform="translate(-9.47 -9.54)"/><path class="cls-1" d="M71.23,35.39a1.29,1.29,0,0,0,.92.38l.23,0a1.31,1.31,0,0,0,1-.74l5.59-12.13a1.32,1.32,0,0,0-.26-1.47,1.3,1.3,0,0,0-1.47-.26L65.06,26.74a1.29,1.29,0,0,0-.73,1,1.32,1.32,0,0,0,.36,1.16Z" transform="translate(-9.47 -9.54)"/><path class="cls-1" d="M89.68,48.85,77.15,44.23a1.29,1.29,0,0,0-1.2.16,1.31,1.31,0,0,0-.56,1.07v9.25A1.3,1.3,0,0,0,76,55.78a1.33,1.33,0,0,0,.75.23,1.42,1.42,0,0,0,.45-.08l12.53-4.62a1.31,1.31,0,0,0,.85-1.23,1.29,1.29,0,0,0-.85-1.23" transform="translate(-9.47 -9.54)"/><path class="cls-1" d="M73.33,65.14a1.3,1.3,0,0,0-2.1-.38l-6.54,6.55a1.28,1.28,0,0,0-.36,1.15,1.31,1.31,0,0,0,.73,1L77.19,79a1.33,1.33,0,0,0,1.47-.25,1.3,1.3,0,0,0,.26-1.47Z" transform="translate(-9.47 -9.54)"/><path class="cls-1" d="M54.62,75.46H45.37A1.31,1.31,0,0,0,44.3,76a1.35,1.35,0,0,0-.16,1.2l4.63,12.53a1.3,1.3,0,0,0,2.44,0l4.63-12.53a1.29,1.29,0,0,0-.16-1.2,1.24,1.24,0,0,0-1.06-.56" transform="translate(-9.47 -9.54)"/><path class="cls-1" d="M28.78,64.75a1.31,1.31,0,0,0-2.11.38L21.08,77.26a1.3,1.3,0,0,0,1.18,1.85,1.33,1.33,0,0,0,.55-.12L34.94,73.4a1.31,1.31,0,0,0,.38-2.11Z" transform="translate(-9.47 -9.54)"/><path class="cls-1" d="M23.32,56a1.3,1.3,0,0,0,1.3-1.3V45.45a1.3,1.3,0,0,0-.56-1.07,1.31,1.31,0,0,0-1.2-.15L10.32,48.85a1.31,1.31,0,0,0-.85,1.23,1.33,1.33,0,0,0,.85,1.23l12.53,4.62a1.91,1.91,0,0,0,.47.07" transform="translate(-9.47 -9.54)"/><path class="cls-1" d="M26.68,35a1.32,1.32,0,0,0,.95.74l.23,0a1.26,1.26,0,0,0,.92-.38l6.54-6.54a1.33,1.33,0,0,0,.36-1.16,1.27,1.27,0,0,0-.74-1L22.81,21.15a1.31,1.31,0,0,0-1.47.26,1.3,1.3,0,0,0-.26,1.47Z" transform="translate(-9.47 -9.54)"/></svg>